<svg width="24" height="24" viewBox="0 0 24 24" fill="none" xmlns="http://www.w3.org/2000/svg">
<g clip-path="url(#clip0_3000_98)">
<path d="M12 24C18.6274 24 24 18.6274 24 12C24 5.3726 18.6274 0 12 0C5.3726 0 0 5.3726 0 12C0 18.6274 5.3726 24 12 24Z" fill="#0071F3"/>
<path d="M13.9061 4.80273H12.5885H9.68417C9.21662 4.80273 8.80577 5.14275 8.73492 5.6103L8.43742 7.5229V7.5371H7.02062C6.63812 7.5371 6.34057 7.8488 6.34057 8.21715C6.34057 8.59965 6.65227 8.8972 7.02062 8.91135H8.22487L8.01237 10.2289L7.99822 10.3281H6.58142C6.19892 10.3281 5.90137 10.6398 5.90137 11.0081C5.90137 11.3765 6.21307 11.6882 6.58142 11.6882H7.78567L7.13397 15.811L6.92147 17.1852L6.80812 17.922C6.72312 18.5029 7.16232 19.0271 7.75737 19.0271H8.66407H9.91082H10.9309C11.3984 19.0271 11.7951 18.687 11.8801 18.2195L12.4894 14.4368H12.8435H13.977C16.6546 14.4368 18.8365 12.2266 18.794 9.53475C18.7515 6.8854 16.5413 4.80273 13.9061 4.80273ZM9.61332 8.91135L13.8919 8.9255C14.2745 8.9255 14.6003 9.2372 14.6003 9.6339C14.6003 10.0164 14.2886 10.3423 13.8919 10.3423H9.38662L9.61332 8.91135ZM13.9203 13.0483H13.1977H12.8577H12.1352C11.6676 13.0483 11.2709 13.3884 11.1859 13.8559L10.5767 17.6528H8.25322L9.17412 11.7024H13.8919C15.0395 11.7024 15.9604 10.7673 15.9604 9.6339C15.9604 8.5005 15.0254 7.56545 13.8919 7.56545L9.83997 7.55125L10.0525 6.19115H13.9911C15.9179 6.19115 17.4764 7.77795 17.4339 9.70475C17.3772 11.5748 15.8046 13.0483 13.9203 13.0483Z" fill="white"/>
</g>
<defs>
<clipPath id="clip0_3000_98">
<rect width="24" height="24" fill="white"/>
</clipPath>
</defs>
</svg>
