<svg width="24" height="24" viewBox="0 0 24 24" fill="none" xmlns="http://www.w3.org/2000/svg">
<path d="M24 12C24 18.6274 18.6274 24 12 24C5.37258 24 0 18.6274 0 12C0 5.37258 5.37258 0 12 0C18.6274 0 24 5.37258 24 12Z" fill="#314012"/>
<path d="M20.9213 12.6507C20.5759 17.2661 16.7205 20.9035 12.0153 20.9035C7.08271 20.9035 3.08408 16.9061 3.08408 11.9751C3.08408 7.04413 7.08271 3.04676 12.0153 3.04676C16.7128 3.04676 20.5632 6.67221 20.9196 11.2769H16.6496C17.5816 9.21717 17.638 7.34582 16.6187 6.49075C15.1133 5.22802 11.832 6.65982 9.28958 9.68878C6.74718 12.7177 5.90648 16.1969 7.41183 17.4596C8.91718 18.7223 12.1985 17.2905 14.7409 14.2616C15.1841 13.7336 15.5756 13.1919 15.9119 12.6507H20.9213Z" fill="#C7E36C"/>
<path d="M12.6861 12.6507H16.2575L14.8784 14.4565L12.6861 13.5766V12.6507Z" fill="#C7E36C"/>
</svg>
