<svg width="24" height="24" viewBox="0 0 24 24" fill="none" xmlns="http://www.w3.org/2000/svg">
<path d="M12 24C18.6274 24 24 18.6274 24 12C24 5.37258 18.6274 0 12 0C5.37258 0 0 5.37258 0 12C0 18.6274 5.37258 24 12 24Z" fill="#00A64F"/>
<path d="M12 24C18.6274 24 24 18.6274 24 12C24 5.37258 18.6274 0 12 0C5.37258 0 0 5.37258 0 12C0 18.6274 5.37258 24 12 24Z" fill="url(#paint0_radial_3000_102)"/>
<path d="M12 24C18.6274 24 24 18.6274 24 12C24 5.37258 18.6274 0 12 0C5.37258 0 0 5.37258 0 12C0 18.6274 5.37258 24 12 24Z" fill="url(#paint1_radial_3000_102)"/>
<path d="M14.1659 11.0874H13.1459V8.09522H17.5919V6.25922H13.1483V3.38342H10.8545V6.25922V6.27062H9.88733C7.79633 6.27062 6.05273 7.32722 6.05273 9.63062C6.05273 11.6454 7.58153 12.9132 9.83273 12.9132H10.8527V15.9048H6.40793V17.7408H10.8515V20.6172H13.1453V17.7294H14.1125C16.2035 17.7294 17.9471 16.6728 17.9471 14.3694C17.9471 12.3552 16.4183 11.0874 14.1659 11.0874ZM10.8515 12.912V11.088H10.1279C9.15653 11.088 8.36573 10.6788 8.36573 9.58802C8.36573 8.50802 9.11573 8.09762 10.1759 8.09762H10.8545V11.0898H13.1453V12.912H10.8515ZM13.8239 15.9048H13.1453V12.9126H13.8719C14.8433 12.9126 15.6341 13.3218 15.6341 14.4126C15.6341 15.4968 14.8841 15.9048 13.8239 15.9048Z" fill="white"/>
<defs>
<radialGradient id="paint0_radial_3000_102" cx="0" cy="0" r="1" gradientUnits="userSpaceOnUse" gradientTransform="translate(0.792 15.8328) scale(19.1982)">
<stop offset="0.09" stop-color="#00522C"/>
<stop offset="1" stop-color="#00522C" stop-opacity="0"/>
</radialGradient>
<radialGradient id="paint1_radial_3000_102" cx="0" cy="0" r="1" gradientUnits="userSpaceOnUse" gradientTransform="translate(22.8612 7.7124) scale(19.1982)">
<stop stop-color="#8AD137"/>
<stop offset="1" stop-color="#8AD137" stop-opacity="0"/>
</radialGradient>
</defs>
</svg>
