<?xml version="1.0" encoding="UTF-8"?>
<svg id="Layer_1" data-name="Layer 1" xmlns="http://www.w3.org/2000/svg" viewBox="0 0 510.31 144.5">
  <defs>
    <style>
      .cls-1 {
        fill-rule: evenodd;
      }

      .cls-1, .cls-2 {
        fill: #fff;
      }

      .cls-3 {
        fill: #0094d8;
      }

      .cls-4 {
        fill: #4eaf46;
      }

      .cls-5 {
        fill: #ede80a;
      }

      .cls-6 {
        fill: #005222;
      }

      .cls-7 {
        fill: #00845e;
      }

      .cls-8 {
        fill: #b3d234;
      }
    </style>
  </defs>
  <g>
    <g>
      <path class="cls-8" d="M42.61,18.83c2.93-3.31,5.6-6.14,8.16-8.51C7.63,8.91,20.19,40.11,6.13,71.8c-16.21,36.5,1.91,50.41,28.89,54.74-3.77-4.48-6.84-9.51-9.11-14.9-17.5-22.01-10.46-62.1,16.71-92.81Z"/>
      <path class="cls-3" d="M146.43,57.62c-4.02,11.31-11.38,23.96-21.79,36.47-7.47,9.08-16.41,16.84-26.47,22.94-10.77,6.98-24.13,11.09-39.06,11.09-8.07.08-16.13-.48-24.11-1.67,4.44,5.3,9.94,9.6,16.14,12.64,39.01,18.86,41.47-16.21,82.74-33.96,23.17-9.98,23.26-29.5,12.55-47.52Z"/>
      <path class="cls-5" d="M98.17,21.24c5.65.99,11.09,2.92,16.09,5.71,13.1,7.41,25.03,18.75,32.17,30.76,7.05-19.79,3.76-35.35-11.63-38.16-16.91-3.09-30.1-4.09-42.79-12.94-15.64-10.92-29.35-7.32-41.23,3.71.84,0,1.69.06,2.58.11,16.5.98,32.24,4.19,44.81,10.82Z"/>
      <path class="cls-4" d="M42.61,18.83C15.44,49.54,8.4,89.63,25.89,111.64c-7.85-18.42-7.31-41.4,3.76-59.74,14.73-24.43,44.27-35.07,68.52-30.65-12.56-6.63-28.31-9.86-44.81-10.82-.89-.05-1.74-.08-2.58-.11-2.52,2.37-5.22,5.2-8.16,8.51Z"/>
      <path class="cls-7" d="M114.26,26.95c-5.01-2.79-10.45-4.72-16.09-5.71,16.54,8.74,27.55,23.41,27.42,46.77-.11,20.28-10.57,38.2-27.42,49.11,10.05-6.1,19-13.86,26.47-22.94,10.41-12.49,17.78-25.16,21.79-36.47-7.14-12.03-19.07-23.35-32.17-30.76Z"/>
      <path class="cls-6" d="M95.46,106.01c-8.97,5.76-19.86,7.74-30.28,5.5s-19.54-8.53-25.34-17.47c-12.05-18.6-6.09-42.56,11.98-55.42,20.22-14.38,46.17-8.71,55.63,11.98,9.22,20.15,6.67,43.42-11.99,55.42ZM98.17,21.24c-24.25-4.42-53.78,6.22-68.52,30.65-11.06,18.32-11.61,41.33-3.76,59.74,2.27,5.4,5.34,10.42,9.11,14.9,7.98,1.19,16.04,1.75,24.11,1.67,14.94,0,28.3-4.11,39.06-11.09,16.83-10.91,27.3-28.83,27.42-49.11.13-23.37-10.89-38.04-27.42-46.77Z"/>
    </g>
    <path class="cls-1" d="M208,55.48v19.69c0,.15.03.3.09.44.06.14.15.27.25.38.11.11.24.19.38.25.14.06.29.08.45.08h14.53c2.56,0,5.02-1.01,6.83-2.82,1.81-1.81,2.83-4.26,2.84-6.82v-2.48c0-2.62-1.04-5.13-2.89-6.98-1.85-1.85-4.36-2.89-6.98-2.89h-14.35c-.3,0-.6.12-.81.34s-.34.51-.34.81ZM199.08,107.37v-60.23c0-.23.04-.45.13-.66.09-.21.21-.4.37-.56.16-.16.35-.29.56-.37s.43-.13.66-.13h21.92c2.57,0,5.11.5,7.48,1.48,2.37.98,4.52,2.42,6.34,4.23,1.81,1.81,3.25,3.97,4.24,6.34.98,2.37,1.49,4.91,1.49,7.48v.53c0,5.24-2.08,10.27-5.79,13.98s-8.74,5.79-13.98,5.79h-13.35c-.3,0-.6.12-.81.34s-.34.51-.34.81v20.98c0,.46-.18.9-.51,1.22-.32.32-.76.51-1.22.51h-5.47c-.46,0-.9-.18-1.22-.51-.32-.32-.51-.76-.51-1.22ZM266.62,87.13l10.41-22.01c.08-.17.21-.32.38-.43s.35-.16.55-.16.38.05.55.16.29.25.38.43l10.35,21.93c.07.15.1.31.09.47-.01.16-.06.32-.15.46s-.21.25-.35.33c-.14.08-.3.12-.46.12h-20.91c-.15,0-.31-.03-.44-.11-.14-.07-.25-.18-.33-.31-.08-.13-.13-.28-.14-.43s.02-.31.09-.45h0ZM300.61,109.09h6.24c.27,0,.53-.07.77-.2.24-.13.43-.32.58-.54.14-.23.23-.49.25-.75.02-.27-.03-.54-.15-.78l-28.18-60.5c-.13-.27-.33-.51-.59-.67-.26-.16-.55-.25-.86-.25h-1.31c-.3,0-.59.09-.83.25-.25.16-.45.39-.57.66l-28.59,60.5c-.11.24-.16.51-.15.78s.1.53.25.75c.14.23.34.41.58.54.24.13.5.2.77.2h6.46c.3,0,.6-.09.85-.25.26-.16.46-.39.59-.67l4.83-10.2c.13-.27.34-.5.59-.66.26-.16.55-.25.85-.25h30c.3,0,.59.09.84.25s.45.39.57.66l4.81,10.2c.13.27.33.5.58.66.25.16.54.25.84.26ZM351.86,109.09h7.45c.17,0,.33-.04.48-.12.15-.08.27-.2.36-.34.09-.14.14-.3.15-.47.01-.17-.02-.33-.09-.48l-13.49-30.2c-.18-.4-.27-.83-.27-1.26s.09-.87.27-1.26l12.32-27.48c.1-.22.15-.47.13-.71-.02-.24-.1-.48-.23-.68s-.31-.37-.53-.49c-.21-.12-.45-.18-.7-.18h-6.34c-.29,0-.57.09-.81.25s-.43.39-.54.66l-8.41,20.26c-.05.15-.15.27-.27.36-.13.09-.28.14-.43.14s-.31-.05-.43-.14c-.13-.09-.22-.22-.27-.36l-8.36-20.24c-.11-.28-.3-.51-.54-.68-.24-.17-.53-.25-.83-.25h-6.27c-.26,0-.51.06-.74.18-.23.12-.42.3-.56.52-.14.22-.22.47-.24.72-.02.26.03.52.14.75l12.24,27.43c.18.39.27.82.27,1.25s-.09.86-.27,1.25l-13.58,30.2c-.07.15-.1.32-.09.48.01.17.06.33.15.47.09.14.21.26.36.34s.31.12.47.12h7.46c.2,0,.39-.06.56-.17.16-.11.29-.27.37-.45l9.48-22.67c.06-.13.15-.23.26-.31.11-.07.25-.11.38-.11s.27.04.38.11c.11.07.2.18.26.31l9.44,22.63c.07.19.2.34.36.46.16.11.36.17.56.17ZM406.99,52.69c-4.26.04-8.43,1.2-12.11,3.34-3.68,2.15-6.73,5.22-8.85,8.91-2.15,3.83-3.26,8.16-3.21,12.56-.03,3.19.58,6.35,1.78,9.3,1.2,2.95,2.98,5.64,5.23,7.9,2.25,2.26,4.92,4.05,7.87,5.27s6.1,1.84,9.29,1.84c4.34.03,8.61-1.09,12.37-3.24,3.7-2.08,6.76-5.14,8.85-8.84,2.14-3.82,3.24-8.14,3.18-12.51.05-4.33-1.04-8.6-3.18-12.37-2.14-3.69-5.24-6.74-8.96-8.83-3.73-2.16-7.96-3.3-12.27-3.3v-.03ZM407.22,110.62c-9.37,0-17.4-3.26-23.85-9.68-3.13-3.03-5.61-6.68-7.29-10.7s-2.5-8.36-2.44-12.72c-.03-5.94,1.5-11.79,4.43-16.95,2.86-5.08,7.02-9.31,12.06-12.24,5.04-2.93,10.77-4.47,16.59-4.45,9.56,0,17.68,3.24,24.14,9.63,6.46,6.39,9.73,14.37,9.73,23.72.03,4.39-.82,8.74-2.48,12.81-1.67,4.06-4.12,7.75-7.23,10.86-3.1,3.11-6.79,5.57-10.86,7.23-4.06,1.67-8.41,2.52-12.8,2.49ZM472.04,110.62c-3.85.03-7.62-1.08-10.84-3.19-3.18-2.11-6.14-5.59-8.78-10.41-.18-.33-.23-.71-.13-1.08s.33-.67.65-.87l5.17-3.1c.17-.1.36-.16.55-.19s.39-.01.58.04.37.14.52.26c.15.12.28.27.37.44,3.35,6.16,7.15,9.28,11.32,9.28,1.77,0,3.51-.43,5.07-1.25,1.46-.74,2.68-1.87,3.52-3.28.79-1.31,1.21-2.82,1.2-4.35-.04-1.87-.67-3.67-1.8-5.16-1.8-2.56-5.2-5.74-10.1-9.43-5.24-3.95-8.46-6.76-9.76-8.61-2.26-2.9-3.5-6.47-3.52-10.15-.02-2.8.71-5.55,2.11-7.96,1.4-2.41,3.45-4.37,5.9-5.69,2.51-1.37,5.33-2.08,8.19-2.06,3.07-.01,6.09.79,8.76,2.32,2.7,1.54,5.43,4.23,8.36,8.23.23.31.32.69.27,1.07-.05.38-.25.72-.56.95l-4.93,3.76c-.15.12-.33.2-.51.25-.18.05-.38.06-.57.03-.19-.03-.37-.09-.54-.19-.16-.1-.31-.22-.42-.38-2.16-2.87-4-4.76-5.43-5.64-1.36-.82-2.93-1.25-4.52-1.24-.91-.04-1.83.1-2.69.41s-1.65.8-2.32,1.42c-.61.56-1.1,1.25-1.42,2.02s-.48,1.59-.46,2.43c0,1.12.24,2.23.7,3.25.68,1.36,1.6,2.58,2.71,3.61.5.48,2.25,1.92,7.69,5.93s9.11,7.54,11.18,10.75c2,2.92,3.1,6.37,3.17,9.91,0,2.35-.47,4.68-1.41,6.84s-2.32,4.1-4.05,5.69c-1.74,1.72-3.82,3.08-6.09,3.99s-4.71,1.36-7.16,1.31Z"/>
  </g>
  <path class="cls-2" d="M510.31,103.75c0,3.73-2.93,6.66-6.75,6.66s-6.79-2.93-6.79-6.66,3.01-6.58,6.79-6.58,6.75,2.93,6.75,6.58ZM498.47,103.75c0,2.93,2.17,5.26,5.14,5.26s5.02-2.33,5.02-5.22-2.13-5.3-5.06-5.3-5.1,2.37-5.1,5.26ZM502.52,107.2h-1.53v-6.58c.6-.12,1.44-.2,2.53-.2,1.24,0,1.81.2,2.29.48.36.28.64.8.64,1.44,0,.72-.56,1.28-1.36,1.53v.08c.64.24,1,.72,1.2,1.61.2,1,.32,1.41.48,1.65h-1.65c-.2-.24-.32-.84-.52-1.61-.12-.72-.52-1.04-1.36-1.04h-.72v2.65ZM502.56,103.47h.72c.84,0,1.53-.28,1.53-.96,0-.6-.44-1.01-1.41-1.01-.4,0-.68.04-.84.08v1.89Z"/>
</svg>